<svg width="454" height="346" viewBox="0 0 454 346" fill="none" xmlns="http://www.w3.org/2000/svg">
<path d="M19.0308 206.868C21.5385 206.459 24.069 206.096 26.5767 205.755C25.2317 205.937 23.9094 206.118 22.5644 206.3C46.9575 203.054 71.7837 202.85 96.1767 206.05C94.8317 205.869 93.5094 205.687 92.1644 205.506C109.673 207.844 126.999 211.975 143.299 218.808L139.697 217.287C145.692 219.829 151.551 222.735 157.137 226.095C159.827 227.706 162.448 229.432 164.979 231.27C165.594 231.724 166.21 232.201 166.848 232.655C162.494 229.477 165.093 231.293 166.073 232.087C167.19 232.973 168.284 233.903 169.356 234.834C171.544 236.741 173.619 238.761 175.602 240.895C176.605 241.985 177.586 243.074 178.543 244.209C179.022 244.777 179.478 245.344 179.934 245.912C181.416 247.751 177.267 242.371 179.25 245.072C182.738 249.816 185.679 254.924 187.958 260.349C187.457 259.146 186.955 257.966 186.431 256.763C188.528 261.779 190.17 267.023 190.899 272.426L190.352 268.43C190.945 273.197 190.922 278.01 190.329 282.777C190.512 281.438 190.694 280.121 190.876 278.782C190.147 284.23 188.688 289.519 186.591 294.604C187.092 293.401 187.594 292.22 188.118 291.017C186.75 294.241 185.154 297.328 183.262 300.279C182.441 301.573 178.612 306.34 182.236 302.004C181.21 303.23 180.207 304.478 179.09 305.659C177.973 306.839 176.856 307.951 175.671 308.996C175.032 309.563 174.394 310.085 173.733 310.63C171.841 312.219 177.198 308.11 174.257 310.199C171.522 312.128 168.581 313.74 165.48 315.057C166.689 314.557 167.874 314.058 169.082 313.536C165.754 314.898 162.289 315.828 158.732 316.328L162.745 315.783C159.052 316.237 155.381 316.237 151.688 315.783C153.033 315.965 154.355 316.146 155.7 316.328C151.46 315.76 147.357 314.625 143.413 312.991C144.621 313.49 145.806 313.99 147.015 314.512C143.39 312.945 139.947 311.039 136.71 308.769C136.323 308.496 135.935 308.201 135.525 307.929C134.066 306.885 138.443 310.267 136.551 308.723C135.798 308.11 135.046 307.497 134.316 306.839C132.766 305.454 131.262 304.024 129.848 302.503C128.435 300.982 127.249 299.552 125.996 298.054C124.856 296.669 128.024 300.801 126.999 299.325C126.725 298.917 126.406 298.531 126.132 298.122C125.494 297.214 124.856 296.306 124.263 295.376C121.983 291.88 120.045 288.18 118.381 284.366C118.883 285.569 119.384 286.749 119.909 287.953C116.329 279.508 114.209 270.564 112.933 261.507L113.48 265.502C111.246 248.568 112.34 231.656 112.636 214.654C112.841 202.668 113.366 190.705 114.369 178.765C114.962 171.75 115.714 164.736 116.649 157.767C116.466 159.106 116.284 160.423 116.102 161.762C119.202 139.062 124.286 116.498 133.268 95.3416C132.766 96.5447 132.265 97.7251 131.74 98.9282C136.687 87.3511 142.843 76.4096 150.366 66.2854C152.19 63.8337 148.268 68.9186 149.682 67.1707C150.183 66.5351 150.685 65.9221 151.209 65.2865C152.235 64.038 153.284 62.8122 154.355 61.6091C156.43 59.271 158.618 57.0237 160.875 54.8672C163.155 52.6879 165.526 50.5995 167.965 48.6246C168.49 48.1933 170.724 46.4681 168.376 48.2841C166.027 50.1001 168.239 48.3976 168.809 47.9663C170.131 46.9902 171.499 46.0368 172.867 45.1061C179.09 40.9293 185.701 37.4107 192.609 34.5051C191.401 35.0045 190.215 35.5039 189.007 36.026C196.097 33.075 203.461 31.1001 211.075 30.0559L207.062 30.6007C215.543 29.4884 224.115 29.5565 232.595 30.6461L228.583 30.1013C237.77 31.3498 246.73 33.8014 255.301 37.3653L251.7 35.8444C257.33 38.2052 262.756 41.0201 267.886 44.3116C269.208 45.1515 270.53 46.0368 271.807 46.9448C272.445 47.3988 273.083 47.8528 273.722 48.3295C276.321 50.259 271.009 46.173 273.083 47.8301C275.454 49.7369 277.757 51.6891 279.968 53.7776C282.179 55.866 284.277 58.0452 286.26 60.3152C287.126 61.2913 288.836 62.7214 289.269 63.9245L287.742 61.9496C288.016 62.3128 288.289 62.6533 288.563 63.0165C289.041 63.6521 289.497 64.2877 289.953 64.9233C293.51 69.9855 296.542 75.3881 298.981 81.0859C298.479 79.8828 297.978 78.7023 297.454 77.4992C300.577 84.9222 302.651 92.7084 303.723 100.676L303.176 96.6809C304.293 105.33 304.224 114.047 303.107 122.695L303.654 118.7C302.378 128.053 299.893 137.155 296.245 145.849C296.747 144.646 297.248 143.466 297.773 142.263C295.539 147.507 292.894 152.591 289.839 157.427C288.335 159.787 286.739 162.057 285.075 164.305C283.502 166.439 287.605 161.127 285.576 163.646C285.166 164.169 284.733 164.691 284.3 165.19C283.365 166.302 282.407 167.392 281.427 168.459C279.535 170.502 277.552 172.477 275.5 174.338C274.428 175.314 273.334 176.268 272.217 177.176C271.693 177.607 271.168 178.016 270.644 178.447C274.383 175.36 272.491 177.04 271.556 177.721C266.951 181.126 262.027 184.122 256.76 186.392C257.969 185.893 259.154 185.393 260.362 184.871C255.279 186.982 249.99 188.458 244.541 189.184L248.553 188.639C244.518 189.139 240.483 189.207 236.448 188.73L240.46 189.275C237.451 188.866 234.51 188.163 231.684 187.028C232.892 187.527 234.077 188.026 235.286 188.549C233.849 187.936 232.436 187.255 231.114 186.415C230.612 186.097 230.156 185.734 229.655 185.439C233.781 187.981 231.547 186.937 230.43 185.915C229.86 185.37 229.29 184.803 228.765 184.213C227.854 183.191 227.329 181.511 229.609 185.37C228.674 183.781 227.671 182.329 226.919 180.649C227.42 181.852 227.922 183.032 228.446 184.235C227.603 182.192 227.033 180.104 226.691 177.925C226.873 179.264 227.056 180.581 227.238 181.92C226.873 179.219 226.896 176.563 227.192 173.861C227.01 175.201 226.828 176.517 226.645 177.857C227.101 174.611 227.968 171.478 229.199 168.436C228.697 169.639 228.196 170.82 227.671 172.023C228.925 169.072 230.521 166.393 232.322 163.76C233.211 162.466 229.769 166.847 231.82 164.418C232.299 163.851 232.801 163.306 233.302 162.761C234.305 161.671 235.331 160.605 236.38 159.538C238.546 157.336 240.802 155.247 243.151 153.227C244.268 152.251 245.407 151.298 246.57 150.367C247.14 149.913 247.71 149.391 248.326 148.982C247.71 149.459 247.072 149.936 246.456 150.412C246.844 150.117 247.254 149.822 247.642 149.527C257.513 142.195 268.342 136.27 279.649 131.48C278.441 131.98 277.255 132.479 276.047 133.001C292.917 125.919 310.767 121.379 328.868 118.904L324.856 119.449C338.694 117.61 352.988 116.453 366.894 118.223C365.549 118.042 364.227 117.86 362.882 117.679C371.773 118.882 380.458 121.197 388.734 124.625C387.525 124.125 386.34 123.626 385.132 123.104C389.532 124.965 393.795 127.099 397.875 129.619C399.836 130.822 401.751 132.116 403.598 133.478C405.558 134.931 402.914 133.024 402.458 132.593C402.936 133.047 403.552 133.455 404.053 133.886C404.92 134.613 405.786 135.362 406.63 136.111C408.317 137.632 409.912 139.221 411.44 140.878C412.192 141.718 412.944 142.558 413.674 143.421C413.993 143.806 415.498 145.713 413.765 143.489C412.101 141.332 413.446 143.08 413.811 143.579C416.615 147.416 418.986 151.547 420.878 155.883C420.376 154.68 419.875 153.499 419.35 152.296C421.539 157.472 422.998 162.875 423.773 168.436C423.591 167.097 423.408 165.78 423.226 164.441C424.047 170.82 423.956 177.221 423.089 183.577L423.636 179.582C422.519 187.414 420.285 194.973 417.253 202.259C417.755 201.056 418.256 199.876 418.781 198.673C415.429 206.527 411.189 213.973 406.196 220.896C405.558 221.782 404.965 222.712 404.236 223.529C404.304 223.461 406.561 220.601 405.148 222.372C404.851 222.758 404.532 223.144 404.236 223.507C403.005 225.028 401.751 226.526 400.474 228.001C397.989 230.884 395.413 233.676 392.769 236.378C387.411 241.826 381.712 246.933 375.717 251.655C373.072 253.743 378.087 249.884 376.127 251.36C375.329 251.95 374.531 252.563 373.733 253.131C372.137 254.311 370.496 255.469 368.855 256.581C365.663 258.76 362.403 260.849 359.075 262.846C351.369 267.454 343.344 271.472 335.069 274.968C336.277 274.469 337.463 273.969 338.671 273.447C322.827 280.053 306.185 284.548 289.178 286.886L293.191 286.341C284.664 287.476 276.07 288.066 267.452 288.134C259.565 288.202 252.019 294.99 252.383 303.139C252.748 311.22 258.995 318.212 267.452 318.144C299.802 317.894 331.672 310.38 360.693 296.125C388.164 282.618 412.124 262.619 430.544 238.307C440.552 225.073 448.349 209.342 451.768 193.066C453.546 184.621 454.504 175.791 453.729 167.142C452.862 157.517 450.583 148.846 446.662 140.038C434.602 112.934 405.581 95.2735 377.176 89.7346C362.38 86.8517 347.608 86.9652 332.675 88.4634C317.242 90.0297 301.876 92.7084 287.012 97.203C272.149 101.675 257.536 107.759 244.199 115.726C230.817 123.717 217.732 133.773 208.134 146.145C196.69 160.9 192.13 182.987 202.868 199.467C211.85 213.269 227.808 219.693 243.994 219.012C274.428 217.741 300.372 197.106 316.033 172.204C331.558 147.529 337.166 117.542 332.219 88.9628C327.227 60.1563 308.898 35.4812 284.778 19.4322C260.362 3.22426 230.133 -3.10909 201.112 1.43094C187.571 3.54206 174.462 9.03551 162.745 16.0499C151.848 22.5648 141.748 30.7823 133.291 40.2255C115.942 59.5661 104.407 83.1062 96.8606 107.781C89.3831 132.207 85.804 157.812 83.9346 183.237C83.0683 195.063 82.8631 206.89 82.4984 218.74C81.9284 237.309 81.4725 255.605 84.6413 274.015C87.6049 291.312 94.6493 307.27 105.957 320.754C115.919 332.627 130.532 342.478 146.034 345.066C161.878 347.722 178.133 344.817 191.104 335.01C203.734 325.476 212.693 312.696 217.572 297.646C222.018 283.889 222.2 268.612 217.8 254.81C213.856 242.461 207.359 231.475 198.833 221.713C182.259 202.782 158.276 190.977 134.499 183.804C108.35 175.905 80.3782 173.09 53.1355 173.816C39.024 174.202 24.9809 175.678 11.0746 177.902C7.58661 178.47 3.77947 181.875 2.06968 184.803C0.177504 188.026 -0.620399 192.748 0.54226 196.357C1.72772 199.989 3.98464 203.485 7.47262 205.324C11.2798 207.322 14.8589 207.526 19.0764 206.845L19.0308 206.868Z" fill="#F6E9DE"/>
</svg>
