<svg width="244" height="71" viewBox="0 0 244 71" fill="none" xmlns="http://www.w3.org/2000/svg">
<g clip-path="url(#clip0_270_172)">
<path d="M21.0068 15.0751V15.1681C24.4091 15.7616 27.311 18.0286 27.311 22.8843C27.311 29.7853 22.9081 32.4599 16.1965 32.4599H0V0.00732422H15.7462C22.5078 0.00732422 26.0459 2.639 26.0459 8.18125C26.0459 12.1788 23.6872 14.174 21.0068 15.0822V15.0751ZM13.7949 13.1228C16.0607 13.1228 17.8762 12.5793 17.8762 9.89756C17.8762 7.21583 16.0607 6.67233 13.7949 6.67233H8.16973V13.1156H13.7949V13.1228ZM8.16973 25.7877H14.0236C17.4259 25.7877 19.1484 24.9725 19.1484 21.926C19.1484 18.8796 17.4259 18.1144 14.0236 18.1144H8.16973V25.7877Z" fill="white"/>
<path d="M45.3301 25.4229H52.542C51.2697 30.0998 47.6387 33.182 41.3346 33.182C33.6223 33.182 28.9478 28.0974 28.9478 20.8317C28.9478 13.566 33.5294 8.48145 40.9271 8.48145C48.8681 8.48145 52.9065 14.2883 52.9065 22.734H36.2097C36.2097 26.0021 38.6113 27.7256 41.1987 27.7256C43.7862 27.7256 44.8726 26.5456 45.3301 25.4086V25.4229ZM36.2097 18.3431H45.6446C45.6446 15.1178 43.6933 13.4874 40.9271 13.4874C38.161 13.4874 36.2097 15.125 36.2097 18.3431Z" fill="white"/>
<path d="M68.9675 32.9178C66.9733 38.8677 64.7933 40.4982 59.89 40.4982C58.6677 40.4982 57.3526 40.3623 55.8516 40.0477V34.5984H55.9445C57.9387 35.0489 59.5755 34.8272 60.3474 33.6473C61.0265 32.6032 60.8907 31.1514 60.1688 29.1062L52.5923 9.22559H59.8543L65.1149 24.4793H65.2078L69.6107 9.22559H76.8727L68.9818 32.9178H68.9675Z" fill="white"/>
<path d="M88.9805 33.1893C81.2253 33.1893 76.5508 28.0619 76.5508 20.8391C76.5508 13.6162 81.2253 8.48877 88.9805 8.48877C96.7356 8.48877 101.367 13.6162 101.367 20.8391C101.367 28.0619 96.6928 33.1893 88.9805 33.1893ZM88.9805 27.7401C92.154 27.7401 94.1053 25.3372 94.1053 20.8391C94.1053 16.3409 92.154 13.9381 88.9805 13.9381C85.8069 13.9381 83.8056 16.3409 83.8056 20.8391C83.8056 25.3372 85.7569 27.7401 88.9805 27.7401Z" fill="white"/>
<path d="M126.363 16.7557V32.4599H119.101V19.0655C119.101 15.5685 117.879 14.3886 115.47 14.3886C112.704 14.3886 111.117 15.7974 111.117 19.0155V32.4527H103.855V9.21105H111.117V12.5722H111.21C112.432 10.4411 114.705 8.48877 118.829 8.48877C123.318 8.48877 126.363 11.4423 126.363 16.7485V16.7557Z" fill="white"/>
<path d="M152.866 0.00715146V32.4669H145.604V30.1499H145.511C144.604 31.3727 142.152 33.1892 138.8 33.1892C132.631 33.1892 128.679 28.4693 128.679 20.8389C128.679 13.2084 132.624 8.48858 138.8 8.48858C142.159 8.48858 144.604 10.305 145.511 11.5279H145.604V0H152.866V0.00715146ZM145.468 20.8389C145.468 16.2978 143.653 13.9379 140.701 13.9379C137.749 13.9379 135.934 16.2978 135.934 20.8389C135.934 25.3799 137.749 27.7399 140.701 27.7399C143.653 27.7399 145.468 25.3799 145.468 20.8389Z" fill="white"/>
<path d="M21.0068 52.7053V52.7983C24.4091 53.3918 27.311 55.6588 27.311 60.5145C27.311 67.4155 22.9081 70.0901 16.1965 70.0901H0V37.6304H15.7462C22.5078 37.6304 26.0459 40.262 26.0459 45.8043C26.0459 49.8019 23.6872 51.7971 21.0068 52.7053ZM13.7949 50.753C16.0607 50.753 17.8762 50.2095 17.8762 47.5278C17.8762 44.846 16.0607 44.3025 13.7949 44.3025H8.16973V50.7458H13.7949V50.753ZM8.16973 63.4179H14.0236C17.4259 63.4179 19.1484 62.6027 19.1484 59.5562C19.1484 56.5098 17.4259 55.7446 14.0236 55.7446H8.16973V63.4179Z" fill="white"/>
<path d="M41.3774 70.8197C33.6223 70.8197 28.9478 65.6922 28.9478 58.4694C28.9478 51.2466 33.6223 46.1191 41.3774 46.1191C49.1326 46.1191 53.7643 51.2466 53.7643 58.4694C53.7643 65.6922 49.0897 70.8197 41.3774 70.8197ZM41.3774 65.3704C44.551 65.3704 46.5023 62.9676 46.5023 58.4694C46.5023 53.9713 44.551 51.5684 41.3774 51.5684C38.2039 51.5684 36.2026 53.9713 36.2026 58.4694C36.2026 62.9676 38.1539 65.3704 41.3774 65.3704Z" fill="white"/>
<path d="M78.5879 46.8481V70.0898H71.3259V66.7287H71.233C70.0108 68.8598 67.7378 70.8121 63.6137 70.8121C59.125 70.8121 56.0801 67.8586 56.0801 62.5524V46.8481H63.3421V60.2425C63.3421 63.7395 64.5643 64.9195 66.973 64.9195C69.7392 64.9195 71.3259 63.5107 71.3259 60.2926V46.8553H78.5879V46.8481Z" fill="white"/>
<path d="M104.634 54.386V70.0903H97.3718V56.6959C97.3718 53.1989 96.1496 52.019 93.7408 52.019C90.9747 52.019 89.388 53.4278 89.388 56.6458V70.0831H82.126V46.8414H89.388V50.2025H89.4809C90.7031 48.0714 92.976 46.1191 97.1002 46.1191C101.589 46.1191 104.634 49.0726 104.634 54.3789V54.386Z" fill="white"/>
<path d="M131.13 37.6375V70.0972H123.868V67.7802H123.775C122.867 69.0031 120.416 70.8195 117.063 70.8195C110.895 70.8195 106.942 66.0997 106.942 58.4692C106.942 50.8388 110.888 46.119 117.063 46.119C120.423 46.119 122.867 47.9354 123.775 49.1583H123.868V37.6304H131.13V37.6375ZM123.732 58.4692C123.732 53.9282 121.917 51.5682 118.965 51.5682C116.013 51.5682 114.197 53.9282 114.197 58.4692C114.197 63.0103 116.013 65.3702 118.965 65.3702C121.917 65.3702 123.732 63.0103 123.732 58.4692Z" fill="white"/>
<path d="M145.425 51.1176C142.795 51.1176 141.523 52.1188 141.294 54.3428H134.489C134.718 49.8947 137.892 46.126 145.468 46.126C152.001 46.126 155.632 48.6647 155.632 55.9733V66.643C155.632 67.8659 156.082 68.3665 156.99 68.3665V70.09C155.539 70.6335 154.224 70.8194 152.773 70.8194C149.506 70.8194 148.599 69.2747 148.599 67.6442H148.506C147.012 69.3677 144.289 70.8194 141.201 70.8194C136.298 70.8194 133.582 68.0518 133.582 64.1472C133.582 59.5203 136.984 57.3821 142.43 56.2951C145.425 55.7016 148.377 55.251 148.377 53.2987C148.377 51.94 147.426 51.1176 145.425 51.1176ZM148.37 61.6014V58.7838C147.462 59.1485 146.326 59.4631 144.646 59.8279C141.787 60.4643 140.836 61.6443 140.836 63.096C140.836 65.0054 141.973 65.8206 143.738 65.8206C146.869 65.8206 148.363 63.8254 148.363 61.6014H148.37Z" fill="white"/>
<path d="M174.781 46.6197V52.9772H174.688C170.964 52.2978 167.018 54.3359 167.018 59.2846V70.0902H159.756V46.8485H167.018V50.6602H167.111C168.248 48.0714 170.242 46.4409 172.779 46.4409C173.415 46.4409 173.959 46.4409 174.773 46.6197H174.781Z" fill="white"/>
<path d="M177.139 40.8556C177.139 38.7674 178.726 37.6304 180.77 37.6304C182.814 37.6304 184.401 38.7674 184.401 40.8556C184.401 42.9438 182.814 44.0808 180.77 44.0808C178.726 44.0808 177.139 42.9938 177.139 40.8556ZM184.401 46.8484V70.0901H177.139V46.8484H184.401Z" fill="white"/>
<path d="M203.271 63.0532H210.483C209.211 67.7302 205.58 70.8124 199.275 70.8124C191.563 70.8124 186.889 65.7278 186.889 58.4621C186.889 51.1964 191.47 46.1118 198.868 46.1118C206.809 46.1118 210.847 51.9187 210.847 60.3643H194.151C194.151 63.6325 196.552 65.3559 199.14 65.3559C201.727 65.3559 202.814 64.176 203.271 63.0389V63.0532ZM194.151 55.9734H203.585C203.585 52.7482 201.634 51.1177 198.868 51.1177C196.102 51.1177 194.151 52.7554 194.151 55.9734Z" fill="white"/>
<path d="M233.813 63.2393C233.813 68.1451 230.089 70.8197 223.649 70.8197C215.343 70.8197 212.17 67.0939 211.941 62.374H218.745C218.974 64.691 220.518 65.821 223.37 65.821C225.414 65.821 226.543 65.1416 226.543 63.8257C226.543 61.8305 224.363 61.5588 220.69 60.7364C216.744 59.8711 212.384 58.4194 212.384 53.5636C212.384 49.3444 216.015 46.1191 222.548 46.1191C229.989 46.1191 232.891 49.8879 233.119 53.9713H226.315C226.086 52.1119 225.093 51.1107 222.734 51.1107C220.69 51.1107 219.646 51.8402 219.646 52.9701C219.646 54.6077 221.097 54.6506 224.685 55.423C229.267 56.4242 233.805 57.9617 233.805 63.2322L233.813 63.2393Z" fill="white"/>
<path d="M236.122 66.6429C236.122 64.3259 237.801 62.7812 239.981 62.7812C242.161 62.7812 243.841 64.3259 243.841 66.6429C243.841 68.96 242.118 70.5046 239.981 70.5046C237.844 70.5046 236.122 69.01 236.122 66.6429Z" fill="white"/>
</g>
<defs>
<clipPath id="clip0_270_172">
<rect width="244" height="71" fill="white"/>
</clipPath>
</defs>
</svg>
